<svg xmlns="http://www.w3.org/2000/svg" xmlns:xlink="http://www.w3.org/1999/xlink" viewBox="0 0 68.29 90.51"><defs><style>.cls-1{fill:url(#linear-gradient);}.cls-2{fill:url(#linear-gradient-2);}.cls-3{fill:url(#linear-gradient-3);}.cls-4{fill:url(#linear-gradient-4);}</style><linearGradient id="linear-gradient" x1="16.41" y1="9.06" x2="34.53" y2="9.06" gradientUnits="userSpaceOnUse"><stop offset="0" stop-color="#0c98f2"/><stop offset="0.99" stop-color="#005b97"/></linearGradient><linearGradient id="linear-gradient-2" x1="40.2" y1="62.31" x2="59.82" y2="62.31" xlink:href="#linear-gradient"/><linearGradient id="linear-gradient-3" x1="50.26" y1="74.38" x2="67.81" y2="74.38" xlink:href="#linear-gradient"/><linearGradient id="linear-gradient-4" x1="0" y1="55.99" x2="68.29" y2="55.99" xlink:href="#linear-gradient"/></defs><title>Ikon Asuransi Jiwa_1</title><g id="Layer_2" data-name="Layer 2"><g id="Layer_1-2" data-name="Layer 1"><path class="cls-1" d="M25.47,0a9.06,9.06,0,1,0,9.06,9.06A9.07,9.07,0,0,0,25.47,0Zm0,15.46a6.4,6.4,0,1,1,6.4-6.4A6.41,6.41,0,0,1,25.47,15.46Z"/><path class="cls-2" d="M59.42,55.2a1.33,1.33,0,0,0-1.88,0L46.42,66.57l-3.93-4.11a1.33,1.33,0,0,0-1.92,1.83l4.88,5.1a1.33,1.33,0,0,0,1.91,0L59.44,57.08A1.33,1.33,0,0,0,59.42,55.2Z"/><path class="cls-3" d="M66.74,64.06a1.33,1.33,0,0,0-1.56,1A23.44,23.44,0,0,1,51.09,82.16a1.33,1.33,0,0,0,1,2.46,26,26,0,0,0,15.7-19A1.33,1.33,0,0,0,66.74,64.06Z"/><path class="cls-4" d="M64.46,43.63c-3.55,2-6.89,2.07-9.94.2a12.75,12.75,0,0,1-3.84-3.76,2.54,2.54,0,0,0-2.06-1.22,36.7,36.7,0,0,0-9.69-14.56,10.65,10.65,0,0,0-7.23-2.82H19.23a11.19,11.19,0,0,0-7.68,3A36.22,36.22,0,0,0,0,51a5.3,5.3,0,0,0,5.07,5.34,5.21,5.21,0,0,0,5.37-5.22,25.54,25.54,0,0,1,4.2-14.16v49a4.61,4.61,0,0,0,4.6,4.6h3a4.59,4.59,0,0,0,3.27-1.37,4.59,4.59,0,0,0,3.27,1.37h3a4.61,4.61,0,0,0,4.6-4.6v-7a25.54,25.54,0,0,0,8.6,5.7,1.33,1.33,0,0,0,1-2.46,23.36,23.36,0,0,1-14.54-21.7V46c5.37,3,10.57,2.25,14.81-1.71a14,14,0,0,0,2.3-2.68l0,0a15.49,15.49,0,0,0,4.64,4.51c2.68,1.65,7,3,12.5-.08V59.17a1.33,1.33,0,0,0,2.65,0V45.86A2.56,2.56,0,0,0,64.46,43.63ZM27.8,24.12,26.21,26a1,1,0,0,1-1.49,0l-1.59-1.89Zm8.5,20.95V37.29A25,25,0,0,1,39.57,45,8.27,8.27,0,0,1,36.3,45.06Zm5.76-1A28.14,28.14,0,0,0,36,32.43a1.33,1.33,0,0,0-2.33.87V44.21c-.57-.26-1.29-.66-1.31-.67a2.56,2.56,0,0,0-3.65,2.32V60.46a26,26,0,0,0,5,15.34V85.91h0a2,2,0,0,1-1.95,1.95h-3a2,2,0,0,1-1.95-1.95V58.66a1.33,1.33,0,0,0-2.65,0V85.91a2,2,0,0,1-1.95,1.95h-3a2,2,0,0,1-1.95-1.95V33A1.33,1.33,0,0,0,15,32.16,28.24,28.24,0,0,0,7.78,51.1a2.56,2.56,0,0,1-2.64,2.57A2.64,2.64,0,0,1,2.65,51,33.58,33.58,0,0,1,13.37,26.43a8.55,8.55,0,0,1,5.87-2.32h.44l3,3.59a3.62,3.62,0,0,0,5.54,0l3-3.59h.44a8,8,0,0,1,5.43,2.12,34,34,0,0,1,9.12,13.9A12.77,12.77,0,0,1,42.07,44Z"/></g></g></svg>