<svg xmlns="http://www.w3.org/2000/svg" xmlns:xlink="http://www.w3.org/1999/xlink" viewBox="0 0 95.79 67.07"><defs><style>.cls-1{fill:url(#linear-gradient);}.cls-2{fill:url(#linear-gradient-2);}.cls-3{fill:url(#linear-gradient-3);}.cls-4{fill:url(#linear-gradient-4);}.cls-5{fill:url(#linear-gradient-5);}</style><linearGradient id="linear-gradient" x1="15.96" y1="55.88" x2="25.54" y2="55.88" gradientUnits="userSpaceOnUse"><stop offset="0" stop-color="#0c98f2"/><stop offset="0.99" stop-color="#005b97"/></linearGradient><linearGradient id="linear-gradient-2" x1="70.25" y1="55.88" x2="79.82" y2="55.88" xlink:href="#linear-gradient"/><linearGradient id="linear-gradient-3" x1="23.95" y1="30.34" x2="39.91" y2="30.34" xlink:href="#linear-gradient"/><linearGradient id="linear-gradient-4" x1="0" y1="33.54" x2="95.79" y2="33.54" xlink:href="#linear-gradient"/><linearGradient id="linear-gradient-5" x1="33.53" y1="41.52" x2="39.91" y2="41.52" xlink:href="#linear-gradient"/></defs><title>Ikon Mobil Derek_1</title><g id="Layer_2" data-name="Layer 2"><g id="Layer_1-2" data-name="Layer 1"><path class="cls-1" d="M20.75,51.09a4.79,4.79,0,1,0,4.79,4.79A4.79,4.79,0,0,0,20.75,51.09Zm0,6.39a1.6,1.6,0,1,1,1.6-1.6A1.6,1.6,0,0,1,20.75,57.48Z"/><path class="cls-2" d="M75,51.09a4.79,4.79,0,1,0,4.79,4.79A4.79,4.79,0,0,0,75,51.09Zm0,6.39a1.6,1.6,0,1,1,1.6-1.6A1.6,1.6,0,0,1,75,57.48Z"/><path class="cls-3" d="M38.32,24h-8a1.6,1.6,0,0,0-1.43.88l-4.79,9.58a1.6,1.6,0,0,0,1.43,2.31H38.32a1.6,1.6,0,0,0,1.6-1.6V25.55A1.6,1.6,0,0,0,38.32,24Zm-1.6,9.58H28.13l3.19-6.39h5.4Z"/><path class="cls-4" d="M85.12,24.89a4.72,4.72,0,0,0,2.62,8.64h3.34a4.72,4.72,0,0,0,4.72-4.72V27.15H92.6v1.67a1.52,1.52,0,0,1-1.52,1.52H87.73a1.52,1.52,0,0,1-.84-2.79l3.4-2.27A1.6,1.6,0,0,0,91,24V4.8a4.85,4.85,0,0,0-8.59-3L58.59,30.6l-5-9.93a4.79,4.79,0,0,0-.94-9.48H43.11A4.79,4.79,0,0,0,38.32,16a4.73,4.73,0,0,0,.29,1.6H28.5a6.35,6.35,0,0,0-5.71,3.53L16.48,33.71l-10.06,2a8,8,0,0,0-6.35,7,1.5,1.5,0,0,0-.08.35V55.88a1.6,1.6,0,0,0,1.6,1.6H9.71a11.16,11.16,0,0,0,22.1,0H59.07a1.6,1.6,0,0,0,1.44-.88l4.34-8.7h2.38a11.18,11.18,0,1,0,15.8.19l-.19-.19h2.38l4.35,8.7a1.6,1.6,0,0,0,1.43.88h3.19a1.6,1.6,0,0,0,1.6-1.6V38.32a1.6,1.6,0,0,0-1.6-1.6H70.12L87.81,11.46V23.1Zm-27,11.83H52.24l-5.32-16H50.1Zm-9.21,0H46.3V29Zm-45.68,8H9.58V47.9H3.19Zm7.3,6.77c0,.11-.09.23-.14.35s-.16.42-.23.63-.08.27-.12.41-.11.4-.16.61-.06.3-.08.45-.05.24-.07.37H3.19V51.09h7.48C10.61,51.22,10.54,51.34,10.49,51.47ZM20.75,63.87a8,8,0,1,1,8-8A8,8,0,0,1,20.75,63.87ZM43.11,38.32v16H31.82c0-.12,0-.24-.07-.37s-.05-.3-.08-.45-.1-.41-.16-.61-.07-.28-.12-.41-.15-.42-.23-.63-.09-.24-.14-.35-.22-.48-.34-.71l-.11-.22q-.25-.46-.54-.89l-.09-.13c-.17-.24-.34-.48-.52-.7l-.22-.25c-.15-.18-.3-.35-.47-.51l-.28-.27c-.16-.15-.31-.29-.48-.43l-.32-.26c-.16-.13-.32-.25-.49-.37l-.36-.24-.52-.32L25.88,46l-.55-.27-.4-.17-.58-.21-.41-.14L23.32,45l-.41-.09-.71-.11-.35,0c-.36,0-.72-.05-1.09-.05s-.73,0-1.09.06l-.35,0c-.24,0-.48.06-.71.11l-.41.09-.63.16-.41.14-.58.21-.4.17-.55.27-.38.21-.52.32-.36.24-.49.37-.32.26-.48.43-.28.27h0v-5a1.6,1.6,0,0,0-1.6-1.6H3.67A4.79,4.79,0,0,1,7,38.86l10.84-2.17A1.6,1.6,0,0,0,19,35.84l6.66-13.32a3.18,3.18,0,0,1,2.85-1.76h14.6ZM41.51,16a1.6,1.6,0,0,1,1.6-1.6h9.58a1.6,1.6,0,1,1,0,3.19H43.11A1.6,1.6,0,0,1,41.51,16ZM83,55.88a8,8,0,1,1-8-8A8,8,0,0,1,83,55.88Zm9.58-16V54.29H92l-4.34-8.7a1.6,1.6,0,0,0-1.44-.88H63.86a1.6,1.6,0,0,0-1.44.88l-4.34,8.7H46.3V39.92ZM87.51,6.32,66.22,36.73H61.65l-.73-1.46-.77-1.54L84.87,3.8a1.66,1.66,0,0,1,2.94,1.06v.51A1.65,1.65,0,0,1,87.51,6.32Z"/><rect class="cls-5" x="33.53" y="39.92" width="6.39" height="3.19"/></g></g></svg>