<svg xmlns="http://www.w3.org/2000/svg" xmlns:xlink="http://www.w3.org/1999/xlink" viewBox="0 0 76.76 73.53"><defs><style>.cls-1{fill:url(#linear-gradient);}.cls-2{fill:url(#linear-gradient-2);}.cls-3{fill:url(#linear-gradient-3);}.cls-4{fill:url(#linear-gradient-4);}.cls-5{fill:url(#linear-gradient-5);}</style><linearGradient id="linear-gradient" x1="31.54" y1="36.76" x2="45.21" y2="36.76" gradientUnits="userSpaceOnUse"><stop offset="0" stop-color="#0c98f2"/><stop offset="0.99" stop-color="#005b97"/></linearGradient><linearGradient id="linear-gradient-2" x1="24.47" y1="31.94" x2="36.51" y2="31.94" xlink:href="#linear-gradient"/><linearGradient id="linear-gradient-3" x1="40.25" y1="41.05" x2="52.29" y2="41.05" xlink:href="#linear-gradient"/><linearGradient id="linear-gradient-4" x1="0" y1="36.76" x2="76.76" y2="36.76" xlink:href="#linear-gradient"/><linearGradient id="linear-gradient-5" x1="14.78" y1="36.76" x2="61.98" y2="36.76" xlink:href="#linear-gradient"/></defs><title>Ikon Promo</title><g id="Layer_2" data-name="Layer 2"><g id="Layer_1-2" data-name="Layer 1"><path class="cls-1" d="M44,25.34a1.21,1.21,0,0,0-1.06.63L31.69,46.41a1.2,1.2,0,0,0,2.1,1.15L45.06,27.14A1.21,1.21,0,0,0,44,25.34Z"/><path class="cls-2" d="M36.51,31.71c0-3.75-2.12-6.51-5.9-6.51s-6.14,3-6.14,6.87c0,4.12,2.63,6.61,6,6.61C33.61,38.69,36.51,36.29,36.51,31.71Zm-6,4.18c-1.49,0-2.26-1.65-2.26-3.95S29,28,30.51,28s2.19,1.72,2.19,3.94C32.7,34.41,32,35.89,30.54,35.89Z"/><path class="cls-3" d="M46.39,34.3c-3.74,0-6.14,3-6.14,6.88,0,4.11,2.67,6.61,6,6.61s6.07-2.4,6.07-7C52.29,37.07,50.17,34.3,46.39,34.3ZM46.32,45c-1.48,0-2.26-1.65-2.22-3.94s.67-3.95,2.22-3.95,2.16,1.72,2.16,3.95C48.48,43.51,47.77,45,46.32,45Z"/><path class="cls-4" d="M71.23,26.09c-1.19-3.68.44-8.83-1.79-11.89s-7.67-3.12-10.76-5.38S53.92,1.45,50.25.25s-7.93,2-11.86,2S30.07-.9,26.52.25,21.15,6.6,18.08,8.83,9.58,11.11,7.33,14.2s-.6,8.21-1.79,11.89S0,32.83,0,36.76s4.38,7.13,5.53,10.67S5.1,56.26,7.33,59.32,15,62.45,18.09,64.7s4.75,7.38,8.43,8.58,7.93-2,11.86-2,8.32,3.14,11.86,2,5.37-6.35,8.43-8.58,8.51-2.28,10.76-5.38.6-8.21,1.79-11.89,5.53-6.74,5.53-10.67S72.38,29.64,71.23,26.09ZM38.38,63.81a27,27,0,1,1,27-27A27,27,0,0,1,38.38,63.81Z"/><path class="cls-5" d="M38.38,13.17A23.6,23.6,0,1,0,62,36.76,23.62,23.62,0,0,0,38.38,13.17Zm0,43.34A19.74,19.74,0,1,1,58.12,36.77,19.77,19.77,0,0,1,38.38,56.51Z"/></g></g></svg>